<?xml version="1.0" encoding="UTF-8"?>
<!DOCTYPE svg PUBLIC "-//W3C//DTD SVG 1.1//EN" "http://www.w3.org/Graphics/SVG/1.1/DTD/svg11.dtd">
<!-- Creator: CorelDRAW -->
<svg xmlns="http://www.w3.org/2000/svg" xml:space="preserve" width="8.5in" height="11in" version="1.1" style="shape-rendering:geometricPrecision; text-rendering:geometricPrecision; image-rendering:optimizeQuality; fill-rule:evenodd; clip-rule:evenodd"
viewBox="0 0 8500 11000"
 xmlns:xlink="http://www.w3.org/1999/xlink">
 <defs>
  <style type="text/css">
   <![CDATA[
    .fil4 {fill:none}
    .fil1 {fill:#09821A}
    .fil3 {fill:#C5D85A}
    .fil0 {fill:#060947;fill-rule:nonzero}
    .fil2 {fill:#C5D85A;fill-rule:nonzero}
   ]]>
  </style>
 </defs>
 <g id="Layer_x0020_1">
  <metadata id="CorelCorpID_0Corel-Layer"/>
  <g id="Universitas_x0020_Islam_x0020_Negeri_x0020_Sultan_x0020_Syarif_x0020_Kasim_x0020_Riau.cdr">
   <g>
    <path class="fil0" d="M1542 10067c29,-40 42,-100 42,-168l0 -98c0,-27 -1,-65 -3,-99 -2,-34 -6,-65 -13,-77 -2,-5 -7,-8 -13,-11 -7,-3 -15,-5 -25,-6l-21 -2 -1 0 -1 -1 0 0 0 0c-2,-4 -3,-8 -3,-13 1,-4 2,-8 5,-10l0 0 1 0 0 -1 1 0c16,1 31,2 46,2 15,0 31,1 47,1 17,0 31,-1 45,-1 13,0 26,-1 40,-2l1 0 1 1 1 0 0 0c3,3 5,7 5,11 0,4 -1,9 -3,11l0 1c0,0 -1,0 -1,0l-1 1 -1 0 -19 2 0 0c-10,1 -19,3 -26,7 -6,3 -11,7 -13,12 -11,28 -11,126 -11,174l0 96c0,38 -3,76 -12,112 -8,36 -23,68 -46,94l0 0c-17,20 -41,36 -68,47 -27,11 -58,17 -89,17 -29,0 -57,-3 -83,-10 -27,-8 -51,-20 -71,-38 -22,-19 -38,-44 -49,-78 -11,-33 -16,-75 -16,-126l0 -202c0,-44 0,-69 -6,-84 -6,-14 -18,-19 -41,-21l0 0 -20 -2 -1 0 0 0c-1,-1 -2,-2 -3,-3 -1,-2 -1,-6 -1,-10l0 0c0,-3 1,-7 3,-9 1,-1 2,-2 3,-3l0 0 1 0c20,1 38,2 54,2 15,0 30,1 47,1 17,0 32,-1 48,-1 15,0 32,-1 52,-2l1 0 0 0c1,1 2,2 3,3 2,2 3,6 3,9l0 0c1,4 0,8 -1,10l0 0c-1,1 -2,2 -3,3l0 0 -1 0 -19 2 0 0c-23,2 -35,7 -41,21 -6,15 -6,40 -6,84l0 185c0,69 10,125 35,165 26,39 67,61 128,61 55,0 94,-21 119,-57zm254 38c7,-14 7,-40 7,-85l0 -304c0,-45 0,-71 -7,-86 -6,-15 -18,-19 -41,-21l0 0 -20 -2 -1 0 0 0c-1,-1 -2,-2 -2,-3l0 0c-2,-3 -2,-7 -2,-10 0,-4 1,-8 3,-10l0 0c1,-1 2,-2 3,-3l0 0 1 0c20,1 38,2 54,2 16,0 31,1 49,1 16,0 31,-1 47,-1 16,0 33,-1 54,-2l0 0 1 0c1,1 2,2 3,3 1,2 2,6 3,10 0,3 -1,7 -2,10l0 0c0,1 -1,2 -2,3l-1 0 0 0 -21 2 0 0c-23,2 -35,6 -41,21 -6,15 -6,41 -6,86l0 304c0,45 0,71 6,85 6,14 18,19 41,22l0 0 21 2 0 0 1 1c1,0 1,1 2,2 1,3 2,7 2,11l0 0c-1,3 -2,7 -4,10 0,1 -1,2 -2,2l-1 0 0 0c-21,0 -38,-1 -54,-1 -16,-1 -31,-1 -47,-1 -18,0 -33,0 -49,1 -16,0 -34,1 -54,1l-1 0 0 0c-1,0 -1,-1 -2,-1l0 0c-2,-2 -4,-6 -4,-10 0,-4 0,-9 2,-12 0,-1 1,-1 2,-2l0 -1 1 0 20 -2 0 0c23,-3 35,-8 41,-22zm726 -316l0 12 0 0 0 204c0,13 0,46 0,76 1,32 1,63 2,74l1 0 -1 1c-1,3 -3,6 -6,8l0 0c-3,2 -7,3 -11,3l-2 0 0 -1c-5,-8 -14,-19 -30,-39 -16,-19 -39,-48 -75,-91l-189 -225 0 0c-8,-10 -20,-26 -34,-42 -22,-28 -47,-59 -59,-72 -1,5 -2,11 -2,19 -1,9 -1,20 -1,33l0 187c0,20 0,58 2,93 2,36 6,70 13,83l0 0c2,3 6,7 12,9 7,3 17,5 27,6l0 0 26 2 1 0 0 1c3,4 4,9 4,13 0,5 -2,9 -6,12l-1 0 0 0c-19,0 -35,-1 -51,-1 -15,-1 -29,-1 -45,-1 -17,0 -31,0 -44,1 -13,0 -26,1 -40,1l-1 0 -1 0c0,0 -1,-1 -1,-1 -3,-3 -4,-7 -5,-11 0,-5 1,-9 3,-12l0 0c1,-1 1,-1 1,-1l1 -1 1 0 22 -2 0 0c9,-2 16,-4 22,-6l0 0c6,-3 10,-6 11,-10l0 0c11,-29 11,-123 11,-168l0 -7 0 0 0 -247c0,-12 0,-23 -3,-32 -2,-10 -6,-19 -14,-28 -5,-6 -12,-10 -20,-13 -9,-3 -19,-6 -29,-7l0 0 -14 -2 -1 0 -1 0c-1,-1 -1,-2 -2,-3l0 0c-1,-3 -2,-7 -2,-11 0,-4 2,-8 4,-10l0 0c1,-1 2,-1 3,-2l0 0 1 0c34,3 77,3 92,3 6,0 13,-1 20,-1 6,0 12,-1 17,-2l2 0 1 2c15,42 109,152 137,185l0 0 2 2 0 0 79 93 28 34c41,48 74,86 105,119 2,-5 2,-17 2,-33l0 -182c0,-21 0,-58 -3,-94 -2,-36 -6,-70 -13,-82 -2,-3 -6,-6 -14,-9 -8,-3 -19,-5 -35,-7l0 0 -14 -2 -1 0 0 0c-2,-2 -3,-3 -3,-5 -2,-3 -2,-7 -2,-10 1,-3 2,-6 4,-8l0 0c1,-1 2,-2 3,-3l1 0 0 0c19,1 35,2 51,2 15,0 30,1 45,1 18,0 32,-1 45,-1 13,0 25,-1 39,-2l1 0 1 0c0,1 1,1 1,2 3,2 5,6 5,11 0,4 -1,8 -3,11l0 0c0,0 -1,1 -1,2l-1 0 -1 0 -11 2 0 0c-13,2 -23,5 -31,8 -7,3 -12,6 -13,9 -12,27 -12,118 -12,163zm623 116c20,27 33,60 33,101 0,48 -18,88 -49,117 -30,28 -74,44 -127,44 -35,0 -63,-6 -85,-13 -21,-7 -36,-15 -44,-19l0 -1 -1 0c-5,-10 -10,-29 -14,-51 -4,-23 -7,-49 -8,-70l0 -1 0 0c1,-2 3,-3 4,-4 3,-2 6,-3 9,-3 3,0 6,0 9,2l0 0c1,0 1,1 2,2l0 0 0 1c6,21 18,53 39,79 21,26 53,46 99,46 32,0 55,-10 72,-26 18,-18 28,-43 28,-70 0,-18 -2,-38 -11,-58 -9,-19 -26,-40 -55,-59l0 0 -78 -53 0 0c-23,-17 -48,-39 -66,-69 -14,-23 -23,-50 -23,-81 0,-42 17,-81 48,-108 28,-26 69,-41 121,-41 12,0 25,1 37,3 14,2 28,5 39,8l1 0c4,2 10,3 14,4 5,1 10,1 13,1l2 0 1 2c3,11 7,29 10,48 3,19 4,39 4,57l0 1 0 0c0,1 -1,2 -2,3 -3,2 -6,3 -10,4 -4,0 -7,0 -10,-2l0 0c-1,-1 -2,-1 -2,-2l-1 0 0 -1c-5,-20 -13,-44 -29,-63 -16,-18 -41,-32 -79,-32 -33,0 -55,10 -70,24 -19,19 -25,47 -25,69 0,20 7,39 17,54 14,22 34,38 51,49l0 0 66 43 0 0c26,17 51,38 70,65zm522 162c29,-40 42,-100 42,-168l0 -98c0,-27 -1,-65 -3,-99 -2,-34 -6,-65 -13,-77 -2,-5 -7,-8 -13,-11 -7,-3 -15,-5 -26,-6l-20 -2 -1 0 -1 -1 0 0 0 0c-3,-4 -3,-8 -3,-13 1,-4 2,-8 5,-10l0 0 0 0 1 -1 1 0c16,1 31,2 46,2 15,0 31,1 47,1 17,0 31,-1 44,-1 14,0 27,-1 41,-2l1 0 1 1 1 0 0 0c3,3 5,7 5,11l0 0c0,4 -1,9 -3,11l0 1c-1,0 -1,0 -1,0l-1 1 -1 0 -19 2 0 0c-10,1 -19,3 -26,7 -6,3 -11,7 -13,12l0 0c-11,28 -11,126 -11,174l0 96c0,38 -3,76 -12,112 -8,36 -23,68 -46,94l0 0c-17,20 -41,36 -68,47 -27,11 -58,17 -89,17 -29,0 -57,-3 -83,-10 -27,-8 -51,-20 -72,-38 -21,-19 -38,-44 -48,-78 -11,-33 -16,-75 -16,-126l0 -202c0,-44 0,-69 -6,-84 -6,-14 -18,-19 -41,-21l0 0 -20 -2 -1 0 0 0c-1,-1 -2,-2 -3,-3 -1,-2 -1,-6 -1,-10l0 0c0,-3 1,-7 3,-9l0 0c1,-1 2,-2 3,-3l0 0 1 0c20,1 37,2 53,2 16,0 31,1 48,1 17,0 32,-1 48,-1 15,0 32,-1 52,-2l1 0 0 0c1,1 2,2 3,3l0 0c2,2 3,6 3,9 0,4 0,8 -1,10 -1,1 -2,2 -3,3l0 0 -1 0 -20 2 0 0c-22,2 -34,7 -40,21 -6,15 -6,40 -6,84l0 185c0,69 10,125 35,165 26,39 66,61 128,61 55,0 93,-21 119,-57zm485 -162c20,27 33,60 33,101 0,48 -18,88 -49,117 -30,28 -74,44 -127,44 -35,0 -63,-6 -85,-13 -21,-7 -36,-15 -44,-19l0 -1 -1 0c-5,-10 -10,-29 -14,-51 -4,-23 -7,-49 -8,-70l0 -1 0 0c1,-2 3,-3 4,-4 3,-2 6,-3 9,-3 3,0 6,0 9,2 1,0 1,1 2,2l0 0 0 1c6,21 18,53 39,79 21,26 53,46 99,46 32,0 55,-10 72,-26 18,-18 28,-43 28,-70 0,-18 -2,-38 -11,-58 -9,-19 -26,-40 -55,-59l0 0 -78 -53 0 0c-23,-17 -48,-39 -66,-69 -14,-23 -23,-50 -23,-81 0,-42 17,-81 48,-108 28,-26 69,-41 121,-41 12,0 25,1 37,3 14,2 28,5 40,8l0 0c4,2 10,3 14,4 5,1 10,1 13,1l2 0 1 2c3,11 7,29 10,48 3,19 4,39 4,57l0 1 0 0c0,1 -1,2 -2,3 -3,2 -6,3 -10,4 -4,0 -7,0 -10,-2l0 0c-1,-1 -2,-1 -2,-2l-1 0 0 -1c-5,-20 -13,-44 -29,-63 -16,-18 -41,-32 -79,-32 -33,0 -55,10 -70,24l0 0c-19,19 -25,47 -25,69 0,20 7,39 17,54 14,22 34,38 51,49l0 0 66 43 0 0c26,17 51,38 70,65zm169 201c5,-15 6,-39 6,-84l0 -308c0,-44 -1,-70 -7,-85 -6,-14 -17,-18 -40,-20l0 0 -21 -2 0 0 -1 0c-1,-1 -1,-2 -2,-3l0 0c-1,-3 -2,-7 -2,-10 1,-4 2,-8 4,-10l0 0c0,-1 1,-2 2,-3l1 0 0 0c20,1 37,2 53,2 16,0 31,1 50,1 16,0 31,-1 46,-1 15,0 31,-1 49,-2l0 0 1 0c1,1 2,2 2,3l0 0c2,2 3,6 4,10 0,3 -1,7 -2,10l0 0c-1,1 -1,2 -2,3l-1 0 0 0 -16 2 0 0c-23,2 -34,7 -40,21 -6,14 -7,40 -7,84l0 99c0,8 1,16 2,21 1,5 3,9 6,9 3,0 7,-1 10,-3 5,-1 9,-4 12,-6 7,-6 17,-17 27,-26 5,-6 11,-12 14,-15l88 -91 0 0c9,-9 25,-26 38,-41 12,-13 22,-25 26,-30 1,-3 3,-5 4,-7l0 0c0,-2 1,-4 1,-5 0,-1 -1,-2 -2,-3 -2,-1 -5,-2 -10,-4l0 0 -22 -5 -1 0 0 0c-1,-1 -2,-2 -2,-3l0 0c-2,-3 -3,-7 -3,-11 1,-4 2,-7 5,-10 0,-1 1,-1 2,-2l0 0 1 0c14,1 29,2 44,2 15,0 31,1 46,1 14,0 28,-1 42,-1 13,0 26,-1 38,-2l1 0 1 1c0,0 1,0 1,0l0 0c3,3 4,7 5,12 0,4 -1,8 -3,11l0 0c-1,1 -1,1 -1,2l-1 0 -1 0c-11,1 -25,4 -39,8 -13,4 -25,10 -36,16 -11,6 -27,19 -46,36 -21,18 -44,40 -67,63l-74 72c-5,6 -10,11 -13,15 -3,4 -5,7 -5,10 0,3 1,6 4,9 2,4 6,10 11,16l0 0c16,19 27,33 38,45 61,74 113,137 166,195 10,10 19,18 29,24 10,5 21,9 35,11l7 0 8 0 0 0c9,-1 18,-4 26,-10 8,-6 15,-16 21,-31l0 0c4,-12 9,-25 15,-40 14,-36 32,-83 56,-150l0 0 84 -231 0 0c5,-16 9,-27 12,-37 2,-9 2,-16 1,-23l0 -2 2 0c9,-3 18,-9 24,-14 7,-6 13,-13 17,-18l1 -1 1 0c3,0 7,1 9,2 3,2 5,4 6,7l0 0c9,33 20,68 31,101l4 14 112 344 0 0c12,36 20,57 30,70 10,12 21,16 37,19l22 2 1 0 1 1c0,0 1,0 1,1l0 0c3,3 3,7 3,12 0,4 -1,8 -3,10 0,1 -1,1 -1,2l-1 0 -1 0c-17,0 -32,-1 -48,-1 -16,-1 -32,-1 -50,-1 -34,0 -62,1 -84,2l-10 0 -1 0 0 0c-2,-1 -3,-2 -4,-3l0 0c-2,-2 -3,-6 -3,-9 0,-4 0,-7 2,-10l0 0c1,-1 2,-3 3,-3l0 -1 1 0 24 -2 0 0c8,-1 15,-3 20,-6 4,-2 6,-4 6,-7 0,-5 -1,-11 -3,-18 -2,-8 -4,-17 -8,-27l0 0 -35 -116 0 0c-3,-9 -5,-14 -9,-17 -4,-2 -11,-3 -23,-3l-123 0c-9,0 -15,1 -19,3l0 0c-4,3 -7,8 -9,16l0 0 -29 90c-6,18 -10,34 -13,45 -3,12 -5,20 -5,25 0,4 1,7 4,10 3,2 8,4 18,5l0 0 27 2 0 0 1 1c1,1 2,2 3,4l0 0c2,3 2,6 2,9l0 0c0,3 -1,6 -3,9 -1,1 -3,2 -4,3l-1 0 0 0c-15,-1 -31,-1 -52,-1 -10,0 -21,-1 -33,-1l0 0c-15,0 -31,1 -45,1 -1,1 -2,1 -2,1l-1 0 0 0c-4,0 -8,0 -12,0l-7 0 -11 0 -1 0 -1 0c0,0 -1,-1 -1,-1l-6 0c-16,-1 -33,-1 -52,-1 -17,0 -33,0 -49,1 -16,0 -32,1 -51,1l0 0 -1 0c-1,0 -2,-1 -3,-1 -2,-2 -3,-6 -4,-9 0,-4 0,-8 1,-11 0,-1 1,-3 2,-4l1 -1 0 0 19 -3 0 0c6,-1 10,-2 14,-3 2,-1 4,-3 4,-3 0,-4 -4,-10 -9,-16l-2 -3 0 0c-10,-13 -23,-27 -38,-46 -9,-10 -19,-21 -30,-34l-65 -77 -9 -11c-39,-45 -51,-60 -68,-60 -5,0 -8,3 -9,8 -2,6 -3,16 -3,31l0 110c0,45 1,70 7,84 5,14 17,18 38,21l0 0 22 2 1 0 1 1c1,0 1,1 2,2 1,3 2,7 1,11 0,3 -1,7 -3,10 0,1 -1,2 -2,2l-1 0 -1 0c-20,0 -36,-1 -52,-1 -16,-1 -31,-1 -47,-1 -17,0 -32,0 -47,1 -15,0 -31,1 -47,1l-1 0 -1 0c0,0 0,0 -1,-1l0 0c-2,-2 -4,-6 -4,-10 -1,-4 0,-8 2,-12l0 0c0,-1 0,-1 1,-2l1 -1 0 0 17 -2c20,-4 31,-8 37,-21zm437 43c7,0 14,1 20,1l11 -1c2,-1 2,-4 3,-6 0,-3 0,-5 -1,-7l0 0c-1,-1 -1,-2 -2,-2l-14 -2 -17 2 0 0 0 0c-1,2 -2,5 -1,8 0,3 0,5 1,7zm253 -453c-4,9 -8,20 -12,32l0 0 -51 149 0 0c-3,9 -5,13 -3,15 1,2 7,2 18,2l100 0c11,0 17,-1 18,-3l0 0c2,-3 1,-9 -3,-20l0 0 -44 -140c-3,-10 -6,-21 -10,-30 -2,-8 -5,-15 -7,-20 -1,3 -4,8 -6,15zm571 410c6,-14 7,-39 7,-84l0 -307c0,-40 -1,-64 -5,-78 -5,-13 -13,-18 -29,-20l0 0 -26 -3 -1 0 0 0c-1,-1 -3,-3 -3,-4 -2,-3 -2,-6 -2,-10 0,-3 1,-6 3,-9 1,-1 2,-2 3,-3l0 0 1 0c23,-2 48,-4 78,-5 30,-1 64,-2 104,-2 25,0 50,1 73,5 24,4 45,10 64,21 21,12 39,28 52,50 11,19 17,43 17,72 0,35 -11,63 -27,85 -21,30 -52,50 -76,60 -1,2 -1,4 0,7l0 0c1,3 3,7 5,10 33,55 60,100 85,137 26,37 51,66 78,90l0 0c7,6 16,12 26,16 9,4 19,7 29,7l1 0 0 1c1,0 2,1 3,2 -1,-4 0,-9 2,-12 0,-1 1,-1 1,-2l1 -1 1 0 20 -2 0 0c23,-3 35,-8 41,-22 6,-14 7,-40 7,-85l0 -304c0,-45 -1,-71 -7,-86 -6,-15 -18,-19 -41,-21l0 0 -20 -2 -1 0 0 0c-1,-1 -2,-2 -3,-3l0 0c-1,-3 -2,-7 -1,-10 0,-4 1,-8 3,-10l0 0c1,-1 1,-2 3,-3l0 0 1 0c20,1 37,2 54,2 16,0 31,1 48,1 17,0 32,-1 48,-1 16,0 33,-1 53,-2l1 0 1 0c1,1 2,2 2,3 2,2 3,6 3,10 1,3 0,7 -1,10l0 0c-1,1 -2,2 -3,3l0 0 -1 0 -20 2 0 0c-23,2 -35,6 -41,21 -6,15 -7,41 -7,86l0 304c0,45 1,71 7,85 6,14 18,19 41,22l0 0 20 2 1 0 0 1c1,0 2,1 3,2 1,3 2,7 1,11l0 0c0,3 -1,7 -3,10 0,1 -1,2 -2,2l-1 0 -1 0c-20,0 -37,-1 -53,-1 -16,-1 -31,-1 -48,-1 -17,0 -33,0 -48,1 -17,0 -34,1 -54,1l-1 0 0 0c-1,0 -2,-1 -2,-1l0 0c-1,-1 -2,-2 -2,-3 0,1 0,2 -1,3 0,1 -1,2 -3,4l0 0 0 0c-4,1 -10,2 -16,3 -6,1 -13,1 -21,1 -35,0 -63,-5 -90,-21 -27,-17 -52,-44 -81,-88 -11,-16 -25,-39 -39,-63 -14,-23 -28,-47 -41,-66l0 0c-6,-9 -12,-15 -20,-20 -9,-4 -20,-6 -36,-6 -18,0 -27,0 -31,2 -4,2 -5,6 -5,14l0 108c0,45 1,69 7,84 6,13 18,17 40,21l0 0 17 2 1 0 1 1c0,0 1,1 2,2 1,3 2,7 1,11 0,4 -1,8 -3,10 -1,1 -2,2 -2,2l-1 0 -1 0c-18,0 -34,-1 -50,-1 -15,-1 -30,-1 -47,-1 -17,0 -33,0 -49,1 -16,0 -33,1 -52,1l-1 0 -1 0c0,0 0,0 -1,-1l0 0c-2,-2 -4,-6 -4,-10 -1,-4 0,-8 2,-12l0 0c0,-1 1,-1 1,-2l1 -1 1 0 20 -2c23,-3 34,-7 40,-21zm85 -489c-6,3 -7,9 -7,20l0 201c0,7 0,13 1,18 0,4 0,7 1,8 1,1 5,2 12,2 9,1 22,2 43,2 14,0 29,-1 43,-4 14,-4 28,-9 39,-18l0 0c11,-9 21,-21 28,-37 8,-17 12,-39 12,-67 0,-36 -11,-71 -35,-95 -21,-21 -52,-35 -93,-35 -25,0 -38,1 -44,5zm995 479c-2,-8 -5,-17 -8,-27l0 0 -36 -116 0 0c-3,-9 -5,-14 -9,-17 -4,-2 -10,-3 -22,-3l-123 0c-10,0 -16,1 -20,3 -4,3 -6,8 -9,16l0 0 -29 90c-6,18 -10,34 -13,45 -3,12 -4,20 -4,25 0,4 0,7 3,10 3,2 9,4 18,5l0 0 27 2 1 0 0 1c2,1 3,2 4,4l0 0c1,3 1,6 1,9l0 0c0,3 -1,6 -3,9 -1,1 -2,2 -4,3l0 0 -1 0c-15,-1 -31,-1 -52,-1 -10,0 -21,-1 -33,-1l0 0c-22,0 -46,1 -66,2l-12 0 -1 0 0 0c-1,0 -1,-1 -2,-1 -2,-3 -3,-7 -4,-11l0 0c0,-5 0,-9 2,-12l0 0c1,0 1,-1 2,-1l0 -1 1 0 27 -2 0 0c9,-1 18,-4 26,-10 8,-6 15,-16 21,-31l0 0c4,-12 10,-25 16,-40 13,-36 32,-83 56,-150l0 0 83 -231 0 0c6,-16 10,-27 12,-37 2,-9 3,-16 2,-23l-1 -2 2 0c10,-3 18,-8 25,-14l0 0c7,-6 12,-13 17,-18l0 -1 1 0c4,0 7,1 10,2 2,2 4,4 5,7l0 0c9,33 21,68 31,101l5 14 112 344 0 0c11,36 20,57 30,70 9,12 20,16 37,19l22 2 0 0 1 1c1,0 1,0 2,1l0 0c2,3 3,7 3,12 -1,4 -2,8 -4,10l0 0c0,1 0,1 -1,2l-1 0 -1 0c-16,0 -32,-1 -48,-1 -15,-1 -31,-1 -50,-1 -34,0 -61,1 -83,2l-11 0 0 0 -1 0c-1,-1 -3,-2 -3,-3l0 0c-2,-2 -3,-6 -4,-9 0,-4 1,-7 2,-10l0 0c1,-1 2,-3 3,-3l1 -1 0 0 24 -2 0 0c8,-1 15,-3 20,-6 4,-2 6,-4 6,-7 0,-5 -1,-11 -2,-18zm-138 -400c-3,9 -7,20 -12,32l0 0 -51 149c-3,9 -4,13 -3,15 2,2 7,2 18,2l100 0c11,0 17,-1 19,-3l0 0c2,-3 0,-9 -3,-20l0 0 -44 -140 0 0 0 0 0 0c-6,-18 -13,-39 -18,-50 -1,3 -3,8 -6,15zm705 371c30,-40 42,-100 42,-168l0 -98c0,-27 0,-65 -3,-99 -2,-34 -6,-65 -12,-77 -3,-5 -7,-8 -14,-11 -6,-3 -15,-5 -25,-6l-21 -2 -1 0 0 -1 -1 0 0 0c-2,-4 -3,-8 -3,-13 1,-4 3,-8 5,-10l0 0 1 0 1 -1 0 0c16,1 31,2 47,2 15,0 30,1 46,1 18,0 32,-1 45,-1 13,0 26,-1 41,-2l1 0 0 1 1 0 0 0c3,3 5,7 5,11 0,4 -1,9 -3,11l0 1c0,0 0,0 -1,0l0 1 -1 0 -20 2 0 0c-10,1 -18,3 -25,7 -7,3 -11,7 -14,12 -11,28 -11,126 -11,174l0 96c0,38 -3,76 -11,112 -9,36 -23,68 -47,94l0 0c-17,20 -41,36 -67,47 -28,11 -59,17 -90,17 -28,0 -57,-3 -83,-10 -26,-8 -51,-20 -71,-38 -22,-19 -38,-44 -49,-78 -10,-33 -16,-75 -16,-126l0 -202c0,-44 0,-69 -6,-84 -6,-14 -18,-19 -40,-21l0 0 -21 -2 0 0 -1 0c-1,-1 -2,-2 -2,-3l0 0c-2,-2 -2,-6 -2,-10l0 0c1,-3 2,-7 3,-9 1,-1 2,-2 3,-3l1 0 0 0c21,1 38,2 54,2 16,0 31,1 47,1 17,0 32,-1 48,-1 16,0 32,-1 53,-2l0 0 1 0c1,1 2,2 2,3 2,2 3,6 3,9l0 0c1,4 0,8 -1,10 -1,1 -1,2 -2,3l-1 0 -1 0 -19 2 0 0c-23,2 -34,7 -40,21 -6,15 -7,40 -7,84l0 185c0,69 10,125 36,165 25,39 66,61 127,61 55,0 94,-21 119,-57z"/>
    <g>
     <polygon class="fil1" points="7313,2102 4996,2102 5307,2413 7313,2413 "/>
     <path class="fil1" d="M4250 833l1153 1153 -523 0 -630 -630 -1057 1057 -341 0 0 796 -490 394 -663 0 0 -1501 1282 0 1269 -1269zm-2170 1580l382 0 0 695 -382 245 0 -940z"/>
     <polygon class="fil1" points="7313,2102 4996,2102 5307,2413 7313,2413 "/>
     <polygon class="fil1" points="1187,2102 1187,4419 1499,4108 1499,2102 "/>
     <g>
      <path class="fil1" d="M-81 5164l1153 -1153 0 523 -630 630 1057 1057 0 342 795 0 395 490 0 662 -1502 0 0 -1282 -1268 -1269zm1580 2170l0 -382 695 0 245 382 -940 0z"/>
      <polygon class="fil1" points="1187,8227 3504,8227 3193,7916 1187,7916 "/>
     </g>
     <path class="fil1" d="M8581 5164l-1153 1153 0 -522 630 -631 -1057 -1056 0 -342 -795 0 -395 -490 0 -662 1502 0 0 1282 1268 1268zm-1580 -2170l0 382 -695 0 -245 -382 940 0z"/>
     <g>
      <path class="fil1" d="M4250 9495l-1153 -1153 523 0 630 631 1057 -1057 341 0 0 -796 490 -395 663 0 0 1502 -1282 0 -1269 1268zm2170 -1579l-382 0 0 -696 382 -245 0 941z"/>
      <polygon class="fil1" points="7313,8227 7313,5910 7001,6221 7001,8227 "/>
     </g>
     <g>
      <polygon class="fil1" points="3740,2151 4074,1816 4074,3309 4426,3309 4426,1816 4761,2151 4761,3306 4431,3608 4069,3608 3740,3306 "/>
      <path class="fil1" d="M5451 2614l-341 0 0 280 341 0 0 -280zm1233 1461l296 295 -971 0 0 -295 675 0zm-1574 -411l0 -240 291 0 0 342 153 0 0 -342 338 434 0 512 -338 0 0 -356 -153 0 -291 -350zm341 -630l-341 0 0 280 341 0 0 -280z"/>
      <path class="fil1" d="M1712 3951l0 341 280 0 0 -341 -280 0zm1461 -1233l296 -296 0 971 -296 0 0 -675zm-411 1574l-240 0 0 -292 342 0 0 -152 -342 0 434 -338 513 0 0 338 -357 0 0 152 -350 292zm-630 -341l0 341 280 0 0 -341 -280 0z"/>
     </g>
     <polygon class="fil1" points="4760,8178 4426,8513 4426,7020 4074,7020 4074,8513 3739,8178 3739,7023 4069,6720 4430,6720 4760,7023 "/>
     <polygon class="fil1" points="1236,5675 902,5340 2395,5340 2395,4989 902,4989 1236,4654 2391,4654 2694,4984 2694,5345 2391,5675 "/>
     <polygon class="fil1" points="7264,5674 7599,5340 6106,5340 6106,4988 7599,4988 7264,4653 6109,4653 5807,4983 5807,5344 6109,5674 "/>
     <path class="fil1" d="M3049 7715l341 0 0 -280 -341 0 0 280zm-1234 -1461l-295 -296 970 0 0 296 -675 0zm1575 411l0 240 -292 0 0 -342 -152 0 0 342 -338 -434 0 -513 338 0 0 357 152 0 292 350zm-341 630l341 0 0 -280 -341 0 0 280z"/>
     <path class="fil1" d="M6788 6377l0 -340 -280 0 0 340 280 0zm-1461 1234l-296 296 0 -971 296 0 0 675zm411 -1574l240 0 0 291 -342 0 0 153 342 0 -434 337 -513 0 0 -337 357 0 0 -153 350 -291zm630 340l0 -340 -280 0 0 340 280 0z"/>
    </g>
    <g>
     <g>
      <path class="fil2" d="M3815 4709l1 0c291,-292 603,-509 871,-625 275,-118 506,-130 629,-7l0 0 0 0c123,123 111,355 -7,629 -115,268 -333,580 -624,872l0 0 -1 0c-291,292 -603,509 -871,625 -275,118 -506,130 -629,7l0 0 0 0c-123,-123 -111,-355 7,-629 115,-268 333,-580 624,-872l0 0zm35 34l-1 0 0 0c-287,288 -501,594 -614,857 -110,256 -125,468 -17,576l0 0 0 0c107,107 320,93 576,-18 263,-113 569,-326 856,-614l1 0 0 0c287,-288 501,-594 614,-857 110,-256 125,-468 17,-576l0 0 0 0c-107,-107 -320,-93 -576,17 -263,114 -569,327 -856,615z"/>
      <path class="fil2" d="M3884 4778l0 0c247,-247 510,-430 736,-528 232,-99 426,-109 529,-6l0 0 0 0c104,103 94,298 -6,529 -97,226 -281,490 -527,736l0 0 0 0c-247,247 -510,430 -736,528 -232,99 -426,109 -529,6l0 0 0 0c-104,-103 -94,-298 6,-529 97,-227 281,-490 527,-736l0 0zm26 25l0 0 0 0c-243,244 -424,503 -520,725 -94,217 -106,398 -14,489l0 0 0 0c92,92 272,80 489,-14 223,-95 482,-276 725,-519l0 0 0 0c243,-244 424,-503 520,-725 94,-217 106,-398 14,-489l0 0 0 0c-92,-92 -272,-80 -489,14 -223,95 -482,276 -725,519z"/>
      <path class="fil2" d="M3945 4838l0 0c207,-206 428,-360 617,-442 194,-83 356,-92 442,-6 85,86 77,248 -6,441 -82,190 -236,411 -443,617l0 0 0 1c-207,206 -428,360 -617,442 -194,83 -356,92 -442,6 -85,-86 -77,-248 6,-441 82,-190 236,-411 443,-618l0 0zm17 17l0 0 0 0c-205,205 -357,423 -438,610 -79,184 -89,337 -11,415 78,78 231,68 415,-11 187,-81 405,-233 610,-438l0 0 0 0c205,-204 357,-422 438,-609 79,-184 89,-337 11,-415 -78,-78 -231,-68 -415,11 -187,81 -405,233 -610,437z"/>
      <path class="fil2" d="M4010 4904c164,-164 339,-286 489,-351 152,-65 280,-72 347,-5 67,67 60,194 -6,346 -65,150 -187,325 -350,489 -164,164 -339,286 -489,351 -152,65 -280,72 -347,5 -67,-67 -60,-194 6,-346 65,-150 187,-325 350,-489zm494 -340c-149,65 -322,186 -485,348 -163,163 -284,337 -348,486 -63,147 -71,269 -8,333 63,63 186,55 333,-9 149,-64 322,-185 485,-347 163,-163 284,-337 348,-486 63,-147 71,-270 8,-333 -63,-63 -186,-55 -333,8z"/>
      <path class="fil2" d="M4063 4956c128,-127 264,-222 381,-273 119,-51 218,-56 271,-4 52,52 46,151 -5,270 -50,117 -145,254 -273,381 -128,128 -264,223 -381,274 -119,51 -218,56 -271,4 -52,-52 -46,-152 5,-270 50,-117 145,-254 273,-382zm385 -264c-116,50 -251,144 -378,271 -127,127 -222,263 -272,379 -49,115 -55,210 -6,259 49,49 145,43 260,-6 116,-50 251,-144 378,-271 127,-127 222,-263 272,-379 49,-115 55,-210 6,-259 -49,-50 -145,-44 -260,6z"/>
      <path class="fil2" d="M4124 5017c86,-87 179,-151 258,-186 81,-34 148,-38 183,-3 35,36 32,103 -3,183 -34,80 -99,172 -186,259 -86,87 -179,151 -258,185 -81,35 -148,39 -183,4 -35,-36 -32,-103 3,-183 34,-80 99,-172 186,-259zm260 -181c-79,34 -171,98 -257,184 -86,87 -151,179 -185,258 -33,78 -37,143 -4,177 34,34 99,30 178,-4 79,-34 171,-98 257,-185 86,-86 151,-178 185,-257 33,-78 37,-144 4,-177 -34,-34 -99,-30 -178,4z"/>
      <path class="fil2" d="M4166 5060c57,-57 118,-100 171,-122 53,-23 97,-25 120,-2 24,23 21,68 -1,121 -23,52 -65,113 -122,170 -57,57 -118,99 -171,122 -53,23 -97,25 -120,2 -24,-24 -21,-68 1,-121 23,-52 65,-113 122,-170zm172 -118c-51,23 -112,65 -168,121 -57,57 -99,117 -121,169 -22,51 -25,94 -3,115 22,22 64,20 116,-2 51,-23 112,-65 168,-121 57,-57 99,-117 121,-169 22,-51 25,-94 3,-116 -22,-21 -64,-19 -116,3z"/>
      <path class="fil2" d="M4202 5095c32,-33 68,-57 98,-70 30,-13 56,-15 70,-1 13,13 12,39 -1,70 -13,30 -38,65 -71,98 -32,33 -68,57 -98,70 -30,13 -56,15 -70,1 -13,-14 -12,-39 1,-70 13,-30 38,-65 71,-98zm99 -67c-30,13 -64,37 -97,70 -32,32 -56,67 -69,97 -13,29 -14,53 -2,65 12,13 37,11 66,-1 30,-13 64,-37 97,-70 32,-32 56,-67 69,-97 13,-29 14,-53 2,-66 -12,-12 -37,-10 -66,2z"/>
     </g>
     <g>
      <path class="fil2" d="M4685 4709l-1 0c-291,-292 -603,-509 -871,-625 -275,-118 -506,-130 -629,-7l0 0 0 0c-123,123 -111,355 7,629 115,268 333,580 624,872l0 0 1 0c291,292 603,509 871,625 275,118 506,130 629,7l0 0 0 0c123,-123 111,-355 -7,-629 -115,-268 -333,-580 -624,-872l0 0zm-35 34l1 0 0 0c287,288 501,594 614,857 110,256 125,468 17,576l0 0 0 0c-107,107 -320,93 -576,-18 -263,-113 -569,-326 -856,-614l-1 0 0 0c-287,-288 -501,-594 -614,-857 -110,-256 -125,-468 -17,-576l0 0 0 0c107,-107 320,-93 576,17 263,114 569,327 856,615z"/>
      <path class="fil2" d="M4616 4778l0 0c-247,-247 -510,-430 -736,-528 -232,-99 -426,-109 -529,-6l0 0 0 0c-104,103 -94,298 6,529 97,226 281,490 527,736l0 0 0 0c247,247 510,430 736,528 232,99 426,109 529,6l0 0 0 0c104,-103 94,-298 -6,-529 -97,-227 -281,-490 -527,-736l0 0zm-26 25l0 0 0 0c243,244 424,503 520,725 94,217 106,398 14,489l0 0 0 0c-92,92 -272,80 -489,-14 -223,-95 -482,-276 -725,-519l0 0 0 0c-243,-244 -424,-503 -520,-725 -94,-217 -106,-398 -14,-489l0 0 0 0c92,-92 272,-80 489,14 223,95 482,276 725,519z"/>
      <path class="fil2" d="M4555 4838l0 0c-207,-206 -428,-360 -617,-442 -194,-83 -356,-92 -442,-6 -85,86 -77,248 6,441 82,190 236,411 443,617l0 0 0 1c207,206 428,360 617,442 194,83 356,92 442,6 85,-86 77,-248 -6,-441 -82,-190 -236,-411 -443,-618l0 0zm-17 17l0 0 0 0c205,205 357,423 438,610 79,184 89,337 11,415 -78,78 -231,68 -415,-11 -187,-81 -405,-233 -610,-438l0 0 0 0c-205,-204 -357,-422 -438,-609 -79,-184 -89,-337 -11,-415 78,-78 231,-68 415,11 187,81 405,233 610,437z"/>
      <path class="fil2" d="M4490 4904c-164,-164 -339,-286 -489,-351 -152,-65 -280,-72 -347,-5 -67,67 -60,194 6,346 65,150 187,325 350,489 164,164 339,286 489,351 152,65 280,72 347,5 67,-67 60,-194 -6,-346 -65,-150 -187,-325 -350,-489zm-494 -340c149,65 322,186 485,348 163,163 284,337 348,486 63,147 71,269 8,333 -63,63 -186,55 -333,-9 -149,-64 -322,-185 -485,-347 -163,-163 -284,-337 -348,-486 -63,-147 -71,-270 -8,-333 63,-63 186,-55 333,8z"/>
      <path class="fil2" d="M4437 4956c-128,-127 -264,-222 -381,-273 -119,-51 -218,-56 -271,-4 -52,52 -46,151 5,270 50,117 145,254 273,381 128,128 264,223 381,274 119,51 218,56 271,4 52,-52 46,-152 -5,-270 -50,-117 -145,-254 -273,-382zm-385 -264c116,50 251,144 378,271 127,127 222,263 272,379 49,115 55,210 6,259 -49,49 -145,43 -260,-6 -116,-50 -251,-144 -378,-271 -127,-127 -222,-263 -272,-379 -49,-115 -55,-210 -6,-259 49,-50 145,-44 260,6z"/>
      <path class="fil2" d="M4376 5017c-86,-87 -179,-151 -258,-186 -81,-34 -148,-38 -183,-3 -35,36 -32,103 3,183 34,80 99,172 186,259 86,87 179,151 258,185 81,35 148,39 183,4 35,-36 32,-103 -3,-183 -34,-80 -99,-172 -186,-259zm-260 -181c79,34 171,98 257,184 86,87 151,179 185,258 33,78 37,143 4,177 -34,34 -99,30 -178,-4 -79,-34 -171,-98 -257,-185 -86,-86 -151,-178 -185,-257 -33,-78 -37,-144 -4,-177 34,-34 99,-30 178,4z"/>
      <path class="fil2" d="M4334 5060c-57,-57 -118,-100 -171,-122 -53,-23 -97,-25 -120,-2 -24,23 -21,68 1,121 23,52 65,113 122,170 57,57 118,99 171,122 53,23 97,25 120,2 24,-24 21,-68 -1,-121 -23,-52 -65,-113 -122,-170zm-172 -118c51,23 112,65 168,121 57,57 99,117 121,169 22,51 25,94 3,115 -22,22 -64,20 -116,-2 -51,-23 -112,-65 -168,-121 -57,-57 -99,-117 -121,-169 -22,-51 -25,-94 -3,-116 22,-21 64,-19 116,3z"/>
      <path class="fil2" d="M4298 5095c-32,-33 -68,-57 -98,-70 -30,-13 -56,-15 -70,-1 -13,13 -12,39 1,70 13,30 38,65 71,98 32,33 68,57 98,70 30,13 56,15 70,1 13,-14 12,-39 -1,-70 -13,-30 -38,-65 -71,-98zm-99 -67c30,13 64,37 97,70 32,32 56,67 69,97 13,29 14,53 2,65 -12,13 -37,11 -66,-1 -30,-13 -64,-37 -97,-70 -32,-32 -56,-67 -69,-97 -13,-29 -14,-53 -2,-66 12,-12 37,-10 66,2z"/>
     </g>
     <path class="fil3" d="M4272 3903l0 2480c36,10 62,43 62,82 0,46 -37,84 -84,84 -47,0 -84,-38 -84,-84 0,-39 26,-72 62,-82l0 -2480c-36,-9 -62,-42 -62,-81 0,-46 37,-84 84,-84 47,0 84,38 84,84 0,39 -26,72 -62,81z"/>
    </g>
   </g>
   <polygon class="fil4" points="-750,500 9250,500 9250,10500 -750,10500 "/>
  </g>
 </g>
</svg>
